<!-- Generated by IcoMoon.io -->
<svg version="1.1" xmlns="http://www.w3.org/2000/svg" width="32" height="32" viewBox="0 0 32 32">
<title>aperture</title>
<path d="M27.314 4.686c-3.022-3.022-7.040-4.686-11.314-4.686s-8.292 1.664-11.314 4.686c-3.022 3.022-4.686 7.040-4.686 11.314s1.664 8.292 4.686 11.314c3.022 3.022 7.040 4.686 11.314 4.686s8.292-1.664 11.314-4.686c3.022-3.022 4.686-7.040 4.686-11.314s-1.664-8.292-4.686-11.314zM28.696 9.814l-14.102 0.009 4.397-7.628c4.272 0.925 7.831 3.788 9.705 7.619zM18.482 11.696l2.486 4.303-2.484 4.304-4.97-0.001-2.481-4.3 2.48-4.303 4.969-0.003zM16 1.875c0.333 0 0.664 0.012 0.991 0.035l-7.041 12.215-4.399-7.621c2.586-2.842 6.312-4.629 10.448-4.629zM1.875 16c0-2.928 0.896-5.651 2.428-7.91l7.047 12.21-8.805-0.002c-0.434-1.356-0.669-2.8-0.669-4.298zM3.297 22.173l14.106 0.004-4.401 7.627c-4.274-0.928-7.833-3.795-9.704-7.63zM16 30.125c-0.336 0-0.668-0.013-0.998-0.036l7.050-12.216 4.401 7.617c-2.586 2.846-6.314 4.635-10.453 4.635zM20.647 11.694l8.805-0.006c0.437 1.36 0.674 2.808 0.674 4.311 0 2.926-0.894 5.646-2.424 7.903l-7.055-12.209z"></path>
</svg>
