<!-- Generated by IcoMoon.io -->
<svg version="1.1" xmlns="http://www.w3.org/2000/svg" width="32" height="32" viewBox="0 0 32 32">
<title>camera</title>
<path d="M23.875 4.585l-1.16-3.375h-13.431l-1.16 3.375h-8.125v26.205h32v-26.205h-8.125zM30.125 28.915h-28.25v-22.455h7.588l1.16-3.375h10.755l1.16 3.375h7.588v22.455z"></path>
<path d="M16 8.915c-4.665 0-8.46 3.795-8.46 8.46s3.795 8.46 8.46 8.46 8.46-3.795 8.46-8.46c0-4.665-3.795-8.46-8.46-8.46zM16 23.959c-3.631 0-6.585-2.954-6.585-6.585s2.954-6.585 6.585-6.585c3.631 0 6.585 2.954 6.585 6.585s-2.954 6.585-6.585 6.585z"></path>
<path d="M16 12.415c-2.735 0-4.96 2.225-4.96 4.96s2.225 4.96 4.96 4.96c2.735 0 4.96-2.225 4.96-4.96s-2.225-4.96-4.96-4.96zM16 20.459c-1.701 0-3.085-1.384-3.085-3.085s1.384-3.085 3.085-3.085 3.085 1.384 3.085 3.085c0 1.701-1.384 3.085-3.085 3.085z"></path>
</svg>
