<!-- Generated by IcoMoon.io -->
<svg version="1.1" xmlns="http://www.w3.org/2000/svg" width="32" height="32" viewBox="0 0 32 32">
<title>focal</title>
<path d="M0 0v12.283h1.875v-10.408h10.599v-1.875z"></path>
<path d="M19.526 0v1.875h10.599v10.408h1.875v-12.283z"></path>
<path d="M1.875 30.125v-10.408h-1.875v12.283h12.474v-1.875z"></path>
<path d="M30.125 19.717v10.408h-10.599v1.875h12.474v-12.283z"></path>
<path d="M20.095 14.7c1.079-1.061 1.75-2.537 1.75-4.166 0-3.223-2.622-5.845-5.845-5.845s-5.845 2.622-5.845 5.845c0 1.63 0.671 3.105 1.75 4.166-2.419 0.654-4.204 2.867-4.204 5.49v7.12h16.596v-7.12c0-2.623-1.785-4.836-4.204-5.49zM16 6.564c2.189 0 3.97 1.781 3.97 3.97s-1.781 3.97-3.97 3.97-3.97-1.781-3.97-3.97c0-2.189 1.781-3.97 3.97-3.97zM22.423 25.435h-12.846v-5.245c0-2.102 1.71-3.812 3.812-3.812h5.223c2.102 0 3.812 1.71 3.812 3.812v5.245z"></path>
</svg>
