<!-- Generated by IcoMoon.io -->
<svg version="1.1" xmlns="http://www.w3.org/2000/svg" width="32" height="32" viewBox="0 0 32 32">
<title>iso</title>
<path d="M0 5.313v21.375h32v-21.375h-32zM30.125 24.813h-28.25v-17.625h28.25v17.625z"></path>
<path d="M7.452 11.494h1.857v8.039h-1.857v-8.039z"></path>
<path d="M16.55 16.215c-0.117-0.264-0.283-0.489-0.498-0.674s-0.477-0.34-0.787-0.464c-0.31-0.125-0.657-0.24-1.042-0.345-0.279-0.075-0.525-0.143-0.736-0.204s-0.387-0.126-0.527-0.198c-0.14-0.072-0.245-0.153-0.317-0.243s-0.108-0.204-0.108-0.34c0-0.445 0.332-0.668 0.996-0.668 0.242 0 0.483 0.034 0.725 0.102s0.464 0.147 0.668 0.238c0.204 0.091 0.374 0.178 0.509 0.26s0.215 0.14 0.238 0.17l0.815-1.54c-0.181-0.106-0.379-0.211-0.594-0.317s-0.447-0.2-0.696-0.283c-0.249-0.083-0.509-0.151-0.781-0.204s-0.547-0.079-0.827-0.079c-0.4 0-0.78 0.057-1.138 0.17s-0.674 0.281-0.945 0.504c-0.272 0.223-0.487 0.496-0.645 0.821s-0.238 0.698-0.238 1.121c0 0.302 0.043 0.566 0.13 0.793s0.219 0.427 0.396 0.6c0.177 0.174 0.402 0.327 0.674 0.459s0.592 0.255 0.962 0.368c0.279 0.083 0.538 0.159 0.776 0.226s0.443 0.142 0.617 0.221c0.174 0.079 0.309 0.168 0.408 0.266s0.147 0.223 0.147 0.374c0 0.4-0.328 0.6-0.985 0.6-0.31 0-0.615-0.041-0.917-0.125s-0.576-0.177-0.821-0.283c-0.245-0.106-0.451-0.211-0.617-0.317s-0.264-0.177-0.294-0.215l-0.815 1.619c0.234 0.159 0.489 0.298 0.764 0.419s0.56 0.225 0.855 0.311c0.294 0.087 0.596 0.153 0.906 0.198s0.611 0.068 0.906 0.068c0.385 0 0.759-0.044 1.121-0.13s0.683-0.226 0.962-0.419c0.279-0.192 0.504-0.445 0.674-0.759s0.255-0.696 0.255-1.149c0-0.37-0.059-0.687-0.175-0.951z"></path>
<path d="M25.059 14.041c-0.189-0.491-0.457-0.928-0.804-1.313s-0.766-0.694-1.257-0.928c-0.491-0.234-1.034-0.351-1.63-0.351-0.581 0-1.117 0.111-1.608 0.334s-0.915 0.521-1.274 0.894c-0.359 0.374-0.638 0.806-0.838 1.296s-0.3 1-0.3 1.529c0 0.521 0.096 1.027 0.289 1.517s0.462 0.927 0.81 1.308c0.347 0.381 0.766 0.689 1.257 0.923s1.034 0.351 1.63 0.351c0.581 0 1.117-0.113 1.608-0.34s0.913-0.526 1.268-0.9c0.355-0.374 0.632-0.806 0.832-1.296s0.3-1 0.3-1.529c0-0.506-0.095-1.004-0.283-1.495zM23.321 16.391c-0.087 0.291-0.217 0.551-0.391 0.781s-0.393 0.417-0.657 0.561c-0.264 0.143-0.574 0.215-0.928 0.215-0.34 0-0.642-0.068-0.906-0.204s-0.485-0.317-0.662-0.543c-0.177-0.226-0.311-0.485-0.402-0.776s-0.136-0.591-0.136-0.9c0-0.302 0.043-0.598 0.13-0.889s0.219-0.549 0.396-0.776c0.177-0.226 0.396-0.409 0.657-0.549s0.568-0.21 0.923-0.21c0.34 0 0.64 0.066 0.9 0.198s0.481 0.31 0.662 0.532c0.181 0.223 0.317 0.479 0.408 0.77s0.136 0.591 0.136 0.9c0 0.302-0.044 0.598-0.13 0.889z"></path>
</svg>
