<!-- Generated by IcoMoon.io -->
<svg version="1.1" xmlns="http://www.w3.org/2000/svg" width="32" height="32" viewBox="0 0 32 32">
<title>speed</title>
<path d="M27.637 9.638l2.43-2.727-4.2-3.742-2.309 2.591c-0.683-0.431-1.399-0.801-2.142-1.107v-4.652h-10.835v4.652c-1.71 0.705-3.281 1.748-4.628 3.096-2.683 2.683-4.161 6.251-4.161 10.046s1.478 7.362 4.161 10.046c2.683 2.683 6.251 4.161 10.046 4.161s7.362-1.478 10.046-4.161c2.683-2.683 4.161-6.251 4.161-10.046 0-2.961-0.9-5.783-2.57-8.156zM26.020 5.816l1.4 1.247-0.978 1.098c-0.129-0.14-0.261-0.278-0.396-0.413-0.31-0.31-0.631-0.602-0.964-0.88l0.938-1.053zM12.458 1.875h7.085v2.155c-1.143-0.292-2.331-0.443-3.542-0.443s-2.399 0.151-3.542 0.443v-2.155zM16 30.125c-6.8 0-12.332-5.532-12.332-12.332s5.532-12.332 12.332-12.332 12.332 5.532 12.332 12.332-5.532 12.332-12.332 12.332z"></path>
<path d="M16 7.288c-5.793 0-10.505 4.713-10.505 10.505s4.713 10.505 10.505 10.505 10.505-4.713 10.505-10.505-4.713-10.505-10.505-10.505zM16 26.424c-4.759 0-8.63-3.871-8.63-8.63s3.871-8.63 8.63-8.63 8.63 3.871 8.63 8.63-3.871 8.63-8.63 8.63z"></path>
<path d="M15.063 10.729h1.875v7.064h-1.875v-7.064z"></path>
</svg>
